<?xml version="1.0" encoding="utf-8" ?>
<svg xmlns="http://www.w3.org/2000/svg" xmlns:xlink="http://www.w3.org/1999/xlink" width="1024" height="1024">
	<path fill="#003049" transform="scale(2 2)" d="M454.166 187.777C450.098 188.742 449.403 183.997 448.307 181.045C428.179 126.854 373.729 87.3862 317.504 78.6698C316.057 78.4455 298.533 77.2713 306.894 71.7597C315.739 71.2352 326.511 74.3724 335.031 76.6053C388.263 90.5553 431.334 126.528 453.071 176.965C454.523 180.336 457.852 184.949 454.166 187.777Z"/>
	<path fill="#003049" transform="scale(2 2)" d="M61.9952 285.94C62.1556 287.464 63.4846 289.707 62.7221 291.125C60.7776 294.739 57.3775 291.726 56.9615 287.518C47.8762 195.613 114.784 112.678 203.317 93.1848C213.737 90.8906 224.06 89.7245 234.653 88.7387C237.155 88.5891 247.622 87.4953 246.592 92.378C245.922 95.5525 235.838 94.6277 233.571 94.7181C142.213 98.3596 61.5663 177.601 61.9975 270.216C62.0215 275.365 63.1875 280.872 61.9952 285.94Z"/>
	<path fill="#003049" transform="scale(2 2)" d="M310.255 130.978C308.594 119.282 313.52 107.623 323.064 100.662C332.609 93.7007 345.215 92.5717 355.844 97.7263C366.473 102.881 373.393 113.478 373.837 125.283C374.201 134.979 370.142 144.315 362.803 150.661C355.464 157.007 345.64 159.675 336.098 157.915C333.339 157.405 330.659 156.535 328.127 155.326C318.468 150.714 311.759 141.574 310.255 130.978ZM364.523 113.147C359.055 103.958 348.563 99.0014 337.993 100.614C327.423 102.226 318.885 110.086 316.406 120.487C313.927 130.888 318.001 141.753 326.707 147.96C336.821 155.171 350.603 154.31 359.741 145.897C368.879 137.485 370.874 123.821 364.523 113.147Z"/>
	<path fill="#FCBF49" transform="scale(2 2)" d="M364.523 113.147C370.874 123.821 368.879 137.485 359.741 145.897C350.603 154.31 336.821 155.171 326.707 147.96C324.771 144.817 322.871 141.887 321.942 138.259C315.785 114.21 343.729 97.0077 360.35 109.417C361.79 110.492 362.831 112.49 364.523 113.147Z"/>
	<path fill="#F77F00" transform="scale(2 2)" d="M87.0155 322.518C83.6205 313.947 82.1982 303.51 81.2013 294.381C67.84 172.02 190.477 78.5656 302.678 127.202C305.272 128.327 307.684 129.813 310.255 130.978C311.759 141.574 318.468 150.714 328.127 155.326C329.461 158.762 330.965 162.652 331.118 166.371C309.811 155.781 280.029 161.337 258.388 168.61C234.075 176.782 218.211 187.935 206.498 211.532C202.346 219.897 196.071 234.928 199.121 244.01C203.337 256.561 217.035 256.373 226.247 249.125C219.525 264.96 218.865 285.777 222.631 302.488C212.293 307.985 203.651 315.104 191.322 312.996C175.102 310.222 131.992 294.768 122.236 295.587C113.707 296.303 111.049 304.679 114.254 311.597C104.513 313.962 95.6176 317.3 87.0155 322.518Z"/>
	<path fill="#FCBF49" transform="scale(2 2)" d="M373.837 125.283C374.864 134.297 374.176 142.378 368.304 149.765C361.58 158.224 346.107 164.078 336.098 157.915C345.64 159.675 355.464 157.007 362.803 150.661C370.142 144.315 374.201 134.979 373.837 125.283Z"/>
	<path fill="#003049" transform="scale(2 2)" d="M226.247 249.125C217.035 256.373 203.337 256.561 199.121 244.01C196.071 234.928 202.346 219.897 206.498 211.532C218.211 187.935 234.075 176.782 258.388 168.61C280.029 161.337 309.811 155.781 331.118 166.371C362.596 178.44 361.401 216.776 380.95 222.515C397.301 227.315 413.467 213.417 427.828 210.59C436.776 208.829 444.168 214.025 447.223 222.219L447.194 222.446C446.965 224.331 447.094 226.24 446.869 228.119C445.277 241.39 427.164 244.331 417.46 249.125C411.314 251.805 405.272 254.406 398.916 256.558C384.152 259.389 368.27 258.658 355.82 249.125C348.363 245.596 342.011 237.327 337.97 230.368C336.761 228.555 335.643 226.703 333.949 225.295C328.817 229.065 323.967 233.262 318.975 237.22C311.08 243.482 298.06 252.682 311.692 262.491L311.896 262.65C322.427 270.737 329.883 273.291 337.933 286.168C339.373 288.472 340.294 291.007 341.638 293.324C351.222 325.561 324.477 352.773 303.667 374.014C301.709 374.152 299.136 377.595 297.776 378.902L288.142 388.257C285.838 390.503 281.949 393.067 280.571 395.981C275.544 400.636 270.794 403.665 263.819 402.615C248.26 394.564 262.862 381.482 268.926 374.389C278.173 363.572 306.916 326.114 304.828 315.915C304.087 312.295 282.404 299.927 278.253 297.231C275.01 295.086 271.55 292.341 267.965 290.869C264.765 332.002 231.926 359.066 191.159 345.644C175.481 340.482 154.404 329.38 139.17 322.315C131.538 318.775 126.815 315.488 118.268 314.116C116.707 313.624 115.464 312.658 114.254 311.597C111.049 304.679 113.707 296.303 122.236 295.587C131.992 294.768 175.102 310.222 191.322 312.996C203.651 315.104 212.293 307.985 222.631 302.488C218.865 285.777 219.525 264.96 226.247 249.125ZM352.864 194.194C344.967 180.609 335.771 172.625 320.006 168.412C296.371 162.096 259.836 171.093 239.03 183.22C221.216 193.603 210.224 212.48 205.178 232.008C203.572 238.224 203.006 243.898 209.027 247.732C220.053 252.837 223.119 242.103 225.332 234.048C230.551 215.057 245.049 202.335 262.526 194.668C266.93 192.736 272.884 189.64 272.762 196.954C239.389 224.928 217.451 258.874 229.086 304.661C212.388 314.161 204.987 322.612 184.347 316.937L132.477 303.193C129.306 302.36 123.708 300.07 120.531 301.738C115.666 304.292 119.182 310.736 122.904 312.458C124.104 311.99 125.27 311.645 126.027 310.518C126.741 310.251 127.959 311.021 128.669 311.346L180.255 334.908C196.355 342.198 210.009 347.175 228.035 340.616C268.03 326.064 258.32 285.386 265.063 283.317C267.833 282.467 288.35 296.891 291.824 299.087C298.026 303.006 307.379 306.513 309.762 314.116C312.187 329.51 285.508 364.424 273.472 377.764C269.955 381.661 252.968 397.602 269.282 396.748C275.718 393.889 300.403 368.993 305.94 363.127C333.844 333.56 358.397 300.561 313.001 270.285C310.215 268.427 307.077 266.694 304.712 264.294C297.522 256.999 299.749 245.192 307.006 238.964C311.341 235.245 316.33 232.067 320.895 228.607C335.612 217.45 334.404 215.432 344.126 230.121C354.968 246.501 374.2 255.04 393.715 251.621C404.104 249.801 412.989 244.467 422.609 240.567C431.882 236.808 443.033 235.307 440.686 222.219C431.448 202.49 402.392 238.936 374.808 226.336C359.805 216.675 360.795 204.845 352.864 194.194ZM255.925 203.753C246.344 209.811 238.774 217.517 233.802 227.768C233.214 228.982 229.356 237.012 231.079 237.329C235.307 226.191 247.416 211.971 256.095 204.034L255.925 203.753Z"/>
	<path fill="#FCBF49" transform="scale(2 2)" d="M352.864 194.194C360.795 204.845 359.805 216.675 374.808 226.336C374.881 226.744 374.986 226.971 375.249 227.296C386.841 241.652 408.898 231.164 422.506 225.663C430.925 222.26 431.331 221.272 440.686 222.219C443.033 235.307 431.882 236.808 422.609 240.567C412.989 244.467 404.104 249.801 393.715 251.621C374.2 255.04 354.968 246.501 344.126 230.121C334.404 215.432 335.612 217.45 320.895 228.607C316.33 232.067 311.341 235.245 307.006 238.964C299.749 245.192 297.522 256.999 304.712 264.294C307.077 266.694 310.215 268.427 313.001 270.285C358.397 300.561 333.844 333.56 305.94 363.127C300.403 368.993 275.718 393.889 269.282 396.748C268.788 395.484 268.376 394.204 267.965 392.911C278.3 384.07 319.307 333.958 314.327 318.313C313.607 316.051 311.715 315.141 309.762 314.116C307.379 306.513 298.026 303.006 291.824 299.087C288.35 296.891 267.833 282.467 265.063 283.317C258.32 285.386 268.03 326.064 228.035 340.616C210.009 347.175 196.355 342.198 180.255 334.908L128.669 311.346C127.959 311.021 126.741 310.251 126.027 310.518C124.824 309.924 122.112 306.722 125.021 306.977C133.51 307.721 149.284 313.422 158.199 315.612L176.877 320.129C210.482 328.48 207.991 323.038 234.653 309.207C232.036 303.165 231.357 296.671 231.103 290.141C229.975 261.215 240.574 238.432 259.651 217.804C265.211 211.792 282.755 202.077 272.762 196.954C272.884 189.64 266.93 192.736 262.526 194.668C245.049 202.335 230.551 215.057 225.332 234.048C223.119 242.103 220.053 252.837 209.027 247.732C205.878 233.658 224.032 203.669 234.124 194.584C253.051 177.545 297.215 167.792 321.534 173.977C331.654 176.55 340.128 181.852 347.548 189.016C349.112 190.526 350.812 193.442 352.864 194.194Z"/>
	<path fill="#FCBF49" transform="scale(2 2)" d="M447.223 222.219C455.255 242.895 430.503 245.113 417.46 250.716L417.46 249.125C427.164 244.331 445.277 241.39 446.869 228.119C447.094 226.24 446.965 224.331 447.194 222.446L447.223 222.219Z"/>
	<path fill="#D62828" transform="scale(2 2)" d="M311.692 262.491C309.52 250.484 315.973 248.102 324.303 241.307C328.816 237.627 333.266 233.801 337.97 230.368C342.011 237.327 348.363 245.596 355.82 249.125C357.354 253.016 367.619 258.512 371.453 260.167C393.571 269.712 401.61 260.625 419.461 256.558C419.664 296.167 400.643 338.191 372.969 366.102C304.331 435.33 193.939 435.884 124.84 367.174C123.385 365.728 115.879 359.376 116.416 365.485C116.764 369.446 135.938 384.731 139.296 387.324C243.857 468.076 402.624 407.874 423.452 279.279C423.892 276.557 423.971 268.344 425.278 266.814C426.131 275.935 424.771 285.688 423.146 294.665C410.43 364.926 359.271 420.098 289.094 436.017C203.732 455.381 112.697 406.848 87.0155 322.518C95.6176 317.3 104.513 313.962 114.254 311.597C115.464 312.658 116.707 313.624 118.268 314.116L118.182 314.33C119.188 316.696 153.679 331.568 158.493 333.796L180.095 343.593C185.579 346.136 190.826 348.882 196.584 350.797C235.192 363.638 271.847 335.794 271.499 295.509C273.811 295.774 276.049 297.152 278.253 297.231C282.404 299.927 304.087 312.295 304.828 315.915C306.916 326.114 278.173 363.572 268.926 374.389C262.862 381.482 248.26 394.564 263.819 402.615C264.446 405.147 271.517 406.858 273.711 406.726C281.719 406.247 294.197 393.018 299.57 387.249C314.297 373.475 335.99 350.318 343.941 333.109C349.132 321.873 351.508 302.831 341.638 293.324C340.294 291.007 339.373 288.472 337.933 286.168C329.883 273.291 322.427 270.737 311.896 262.65L311.692 262.491Z"/>
	<path fill="#003049" transform="scale(2 2)" d="M419.461 256.558C421.354 255.409 423.21 254.444 425.278 253.65C425.26 258.011 425.065 262.465 425.278 266.814C423.971 268.344 423.892 276.557 423.452 279.279C402.624 407.874 243.857 468.076 139.296 387.324C135.938 384.731 116.764 369.446 116.416 365.485C115.879 359.376 123.385 365.728 124.84 367.174C193.939 435.884 304.331 435.33 372.969 366.102C400.643 338.191 419.664 296.167 419.461 256.558Z"/>
	<path fill="#003049" transform="scale(2 2)" d="M69.6294 332.125C63.5799 332.606 59.9799 307.423 60.5316 305.8C60.7601 305.127 61.4199 304.953 61.9952 304.661C63.3863 304.773 64.4692 304.816 65.4735 305.859C67.3405 311.765 68.495 318.289 70.4207 324.546C71.4226 327.801 73.0583 330.023 69.6294 332.125Z"/>
	<path fill="#D62828" transform="scale(2 2)" d="M280.571 395.981C281.949 393.067 285.838 390.503 288.142 388.257L297.776 378.902C299.136 377.595 301.709 374.152 303.667 374.014C300.685 377.516 297.537 380.851 294.335 384.151C290.024 388.564 285.945 392.844 280.571 395.981Z"/>
	<path fill="#F0F0F0" transform="scale(2 2)" d="M280.571 395.981C285.945 392.844 290.024 388.564 294.335 384.151C295.956 385.941 297.601 383.952 299.057 386.986L299.57 387.249C294.197 393.018 281.719 406.247 273.711 406.726C271.517 406.858 264.446 405.147 263.819 402.615C270.794 403.665 275.544 400.636 280.571 395.981Z"/>
</svg>
